<mxfile host="app.diagrams.net" modified="2023-06-27T13:48:44.739Z" agent="Mozilla/5.0 (X11; Ubuntu; Linux x86_64; rv:109.0) Gecko/20100101 Firefox/114.0" version="21.5.1" etag="1phhyNWMikJ6M0MCoEZr" type="github">
  <diagram name="Seite-1" id="wSdgkkBjdgc4AqL5iqOY">
    <mxGraphModel>
      <root>
        <mxCell id="0" />
        <mxCell id="1" parent="0" />
      </root>
    </mxGraphModel>
  </diagram>
</mxfile>
